# xmcd
#
# Track frame offsets: 
#        150
#        74200
#        163942
#        245555
#        326195
#        340958
#
# Disc length: 4835 seconds
#
# Revision: 2
# Processed by: cddbd v1.5.2PL0 Copyright (c) Steve Scherf et al.
# Submitted via: ExactAudioCopy v0.99pb3
#
DISCID=6312e106
DTITLE=Tangerine Dream - In Search Of Hades 14 of 18
DYEAR=2019
DGENRE=Electronic
TTITLE0=Cherokee Lane
TTITLE1=Monolight
TTITLE2=Coldwater Canyon
TTITLE3=Desert Dream
TTITLE4=Encore [A-Side]
TTITLE5=Hobo March [B-Side]
EXTD=
EXTT0=
EXTT1=
EXTT2=
EXTT3=
EXTT4=
EXTT5=
PLAYORDER=
